<?xml version="1.0" encoding="UTF-8" standalone="no"?>
<!-- Uploaded to: SVG Repo, www.svgrepo.com, Generator: SVG Repo Mixer Tools -->

<svg
   width="800px"
   height="800px"
   viewBox="0 0 24 24"
   fill="none"
   version="1.1"
   id="svg1"
   sodipodi:docname="checkbox-check.svg"
   inkscape:version="1.4.2 (ebf0e940d0, 2025-05-08)"
   xmlns:inkscape="http://www.inkscape.org/namespaces/inkscape"
   xmlns:sodipodi="http://sodipodi.sourceforge.net/DTD/sodipodi-0.dtd"
   xmlns="http://www.w3.org/2000/svg"
   xmlns:svg="http://www.w3.org/2000/svg">
  <defs
     id="defs1" />
  <sodipodi:namedview
     id="namedview1"
     pagecolor="#ffffff"
     bordercolor="#000000"
     borderopacity="0.25"
     inkscape:showpageshadow="2"
     inkscape:pageopacity="0.0"
     inkscape:pagecheckerboard="0"
     inkscape:deskcolor="#d1d1d1"
     inkscape:zoom="0.59658691"
     inkscape:cx="273.22088"
     inkscape:cy="432.46004"
     inkscape:window-width="954"
     inkscape:window-height="1045"
     inkscape:window-x="0"
     inkscape:window-y="0"
     inkscape:window-maximized="1"
     inkscape:current-layer="Interface / Checkbox_Check" />
  <g
     id="Interface / Checkbox_Check">
    <path
       id="Vector"
       d="m 8,12 3,3 5,-6 M 4,16.8002 v -9.6 C 4,6.08009 4,5.51962 4.21799,5.0918 4.40973,4.71547 4.71547,4.40973 5.0918,4.21799 5.51962,4 6.08009,4 7.2002,4 h 9.6 c 1.1201,0 1.6794,0 2.1072,0.21799 0.3763,0.19174 0.6831,0.49748 0.8748,0.87381 C 20,5.5192 20,6.07899 20,7.19691 v 9.60669 c 0,1.1179 0,1.6769 -0.2178,2.1043 -0.1917,0.3763 -0.4985,0.6826 -0.8748,0.8743 C 18.48,20 17.921,20 16.8031,20 H 7.19691 C 6.07899,20 5.5192,20 5.0918,19.7822 4.71547,19.5905 4.40973,19.2842 4.21799,18.9079 4,18.4801 4,17.9203 4,16.8002 Z"
       stroke="#000000"
       stroke-width="2"
       stroke-linecap="round"
       stroke-linejoin="round"
       style="display:inline" />
    <path
       style="fill:#ffffff;stroke:#ffffff;stroke-width:0.838101;stroke-linejoin:round"
       d="m 352.84046,528.88803 c -3.22669,-1.73681 -30.50855,-27.91507 -60.62636,-58.17393 -48.27401,-48.50006 -54.98796,-55.88217 -56.68725,-62.32871 -2.56679,-9.73752 -0.8264,-18.72921 5.24825,-27.11502 8.6315,-11.91544 26.48529,-16.82146 38.81477,-10.66587 2.95043,1.47303 23.25033,20.4845 45.1109,42.24773 21.86056,21.76322 40.03448,39.22671 40.3865,38.80776 0.35201,-0.41895 33.23427,-39.98485 73.0717,-87.92422 62.72092,-75.4768 73.59894,-87.80127 81.13812,-91.9271 7.39956,-4.04943 9.96286,-4.62014 17.07668,-3.80208 21.67955,2.49306 35.67131,26.45751 26.24377,44.9491 -1.70529,3.34483 -41.79351,52.51958 -89.08494,109.27721 -92.6727,111.22277 -91.5219,110.04524 -107.3927,109.88705 -4.088,-0.0407 -10.07275,-1.4951 -13.29944,-3.23192 z"
       id="path2"
       transform="scale(0.03)" />
    <path
       style="fill:#ffffff;stroke:#ffffff;stroke-width:0.838101;stroke-linejoin:round"
       d="m 195.70868,698.11228 c -27.93637,-2.37404 -48.35167,-11.27596 -65.62867,-28.61684 -15.23491,-15.29123 -23.53294,-32.06515 -27.00859,-54.59607 -1.19256,-7.73077 -1.59794,-80.27817 -1.2442,-222.66817 0.46185,-185.91001 0.83864,-212.20504 3.14648,-219.58242 10.44456,-33.38776 37.76921,-59.88854 70.18938,-68.07309 13.71651,-3.46277 435.54403,-3.45635 449.22205,0.007 36.58829,9.26391 62.90519,36.49828 71.72045,74.22085 2.62875,11.24902 2.87053,29.86056 2.87053,220.97074 0,197.21061 -0.17077,209.42455 -3.10538,222.09672 -8.5147,36.76819 -35.67568,64.50713 -72.3237,73.8627 -10.9052,2.7839 -25.87217,3.02005 -212.03951,3.34533 -110.16836,0.1925 -207.27784,-0.24246 -215.79884,-0.96658 z m 418.64543,-67.1917 c 7.95592,-3.6232 16.27613,-13.45601 17.91031,-21.16637 0.73689,-3.47688 1.33982,-99.09936 1.33982,-212.49441 0,-202.8563 -0.0539,-206.27893 -3.3524,-212.76994 -1.84382,-3.62842 -6.16986,-8.84278 -9.61342,-11.58746 -6.18579,-4.93036 -6.60873,-5.0085 -35.20024,-6.50335 -15.91657,-0.83217 -110.77976,-1.27106 -210.8071,-0.97532 -180.66887,0.53417 -181.91761,0.56092 -189.41079,4.05708 -8.82098,4.11569 -12.17627,7.54515 -16.27904,16.63892 -2.8118,6.23235 -3.02931,18.36469 -3.51483,196.05426 -0.29566,108.20723 0.16058,198.57651 1.0642,210.79021 1.42971,19.32469 2.01374,21.94582 6.0768,27.27277 6.33669,8.30783 11.34079,11.12128 22.34305,12.56193 5.27238,0.69037 100.47817,1.15399 211.56844,1.03029 181.32528,-0.20195 202.58499,-0.49941 207.8752,-2.90861 z"
       id="path3"
       transform="scale(0.03)" />
  </g>
</svg>
