<svg width="24" height="24" viewBox="0 0 24 24" fill="none" xmlns="http://www.w3.org/2000/svg">
<path d="M22 0C21.4696 8.03e-05 20.9609 0.210847 20.5859 0.585938L17.793 3.37891L16.207 1.79297L14.793 3.20703L15.9414 4.35547L2.76562 17.5293C2.25587 18.039 2 18.711 2 19.3828V20.5859L0 22.5859L1.41406 24L3.41406 22H4.61914C5.29096 22 5.96291 21.7461 6.47266 21.2363L19.6484 8.0625L20.793 9.20703L22.207 7.79297L20.6211 6.20703L23.4141 3.41406C23.7892 3.03905 23.9999 2.5304 24 2V1.5C24 1.10218 23.842 0.720644 23.5607 0.43934C23.2794 0.158035 22.8978 0 22.5 0H22ZM16.6484 5.0625L18.9414 7.35547L10.2949 16H5.70898L16.6484 5.0625Z" fill="white"/>
</svg>
