<svg width="47" height="47" viewBox="0 0 47 47" fill="none" xmlns="http://www.w3.org/2000/svg">
<path d="M14.262 34.3273L21.1818 26.7156C22.0034 25.8118 23.4362 25.8491 24.2096 26.7944L30.4051 34.3668C30.9393 35.0197 30.4748 36 29.6312 36H15.002C14.1338 36 13.6781 34.9697 14.262 34.3273Z" fill="white" fill-opacity="0.4"/>
<path d="M25.9946 26.593C26.3392 26.898 26.872 26.8686 27.1215 26.482C27.5563 25.808 27.8404 25.0442 27.9496 24.2428C28.0965 23.165 27.9205 22.0678 27.4439 21.09C26.9672 20.1122 26.2113 19.2977 25.2717 18.7495C24.3322 18.2013 23.2511 17.944 22.1654 18.0102C21.0796 18.0764 20.0378 18.4631 19.1718 19.1213C18.3058 19.7796 17.6544 20.6799 17.3 21.7083C16.9457 22.7368 16.9042 23.8472 17.181 24.8992C17.3867 25.6814 17.7615 26.4051 18.275 27.0212C18.5696 27.3747 19.102 27.3392 19.407 26.9946C19.7119 26.65 19.6706 26.1274 19.3999 25.7553C19.1211 25.372 18.9143 24.9383 18.7925 24.4753C18.5996 23.742 18.6285 22.968 18.8755 22.2512C19.1225 21.5343 19.5765 20.9068 20.1801 20.4479C20.7838 19.9891 21.5099 19.7196 22.2667 19.6735C23.0236 19.6273 23.7771 19.8067 24.432 20.1888C25.0869 20.5709 25.6138 21.1386 25.946 21.8202C26.2782 22.5017 26.4009 23.2665 26.2985 24.0178C26.2339 24.4922 26.0813 24.9477 25.8511 25.3621C25.6276 25.7643 25.65 26.2881 25.9946 26.593Z" fill="white" fill-opacity="0.4"/>
<path d="M31.2195 31.2175C31.5734 31.5307 32.1168 31.4994 32.4051 31.1249C33.7327 29.4003 34.5902 27.3545 34.8855 25.1882C35.2194 22.7386 34.8194 20.2449 33.736 18.0227C32.6527 15.8004 30.9348 13.9493 28.7994 12.7033C26.664 11.4574 24.2071 10.8727 21.7394 11.0232C19.2718 11.1736 16.9041 12.0524 14.9359 13.5484C12.9676 15.0445 11.4872 17.0906 10.6819 19.428C9.87648 21.7654 9.78232 24.2891 10.4113 26.6801C10.9675 28.7945 12.0671 30.721 13.5944 32.2716C13.9261 32.6083 14.4693 32.5734 14.7825 32.2195C15.0957 31.8656 15.06 31.327 14.732 30.9867C13.4563 29.6631 12.5365 28.0316 12.0665 26.2446C11.5236 24.1811 11.6049 22.0029 12.3 19.9855C12.9951 17.9681 14.2728 16.2022 15.9715 14.911C17.6703 13.6198 19.7138 12.8613 21.8436 12.7315C23.9734 12.6017 26.0939 13.1063 27.9369 14.1816C29.7799 15.2569 31.2626 16.8546 32.1976 18.7726C33.1326 20.6906 33.4778 22.8428 33.1897 24.957C32.9401 26.7878 32.2253 28.519 31.1199 29.9877C30.8356 30.3653 30.8656 30.9043 31.2195 31.2175Z" fill="white" fill-opacity="0.4"/>
<path d="M28.8328 29.1051C29.2641 29.4869 29.9286 29.4496 30.2609 28.979C31.1374 27.7373 31.7063 26.299 31.913 24.783C32.1667 22.9213 31.8627 21.0262 31.0394 19.3372C30.2161 17.6483 28.9104 16.2414 27.2875 15.2945C25.6646 14.3477 23.7974 13.9033 21.922 14.0176C20.0465 14.1319 18.2471 14.7998 16.7513 15.9368C15.2554 17.0738 14.1303 18.6288 13.5182 20.4053C12.9061 22.1817 12.8346 24.0997 13.3126 25.9168C13.7018 27.3965 14.4412 28.7551 15.4621 29.8811C15.849 30.3078 16.5132 30.2641 16.8949 29.8328C17.2767 29.4014 17.2298 28.7464 16.8563 28.3079C16.1376 27.4642 15.6142 26.4665 15.33 25.3862C14.9569 23.9681 15.0128 22.4712 15.4905 21.0848C15.9681 19.6985 16.8462 18.4849 18.0136 17.5976C19.181 16.7102 20.5853 16.189 22.0489 16.0998C23.5125 16.0106 24.9697 16.3574 26.2363 17.0963C27.5028 17.8353 28.5218 18.9332 29.1643 20.2513C29.8068 21.5694 30.0441 23.0484 29.846 24.5013C29.6952 25.6082 29.2968 26.662 28.6859 27.5868C28.3684 28.0674 28.4014 28.7233 28.8328 29.1051Z" fill="white" fill-opacity="0.4"/>
</svg>
