<svg width="23" height="30" viewBox="0 0 23 30" fill="none" xmlns="http://www.w3.org/2000/svg">
<path d="M2.92233 29.6592C1.37016 29.6592 0.549467 28.8385 0.549467 27.2685V2.96901C0.549467 1.41684 1.37016 0.596152 2.92233 0.596152H6.99008C8.54226 0.596152 9.36294 1.34548 9.36294 2.96901V27.2685C9.36294 28.8385 8.54226 29.6592 6.99008 29.6592H2.92233ZM15.8928 29.6592C14.3228 29.6592 13.5021 28.8385 13.5021 27.2685V2.96901C13.5021 1.41684 14.3228 0.596152 15.8928 0.596152H19.9427C21.5127 0.596152 22.3155 1.34548 22.3155 2.96901V27.2685C22.3155 28.8385 21.5127 29.6592 19.9427 29.6592H15.8928Z" fill="white"/>
</svg>
