<?xml version="1.0" encoding="UTF-8" standalone="no"?>
<svg
   viewBox="-10 -10 45 45"
   width="28"
   height="28"
   stroke="#fff"
   stroke-width="2"
   fill="#2369ff"
   stroke-linecap="round"
   stroke-linejoin="round"
   class="css-i6dzq1"
   version="1.1"
   id="svg1"
   sodipodi:docname="bluetooth.svg"
   inkscape:version="1.4.2 (ebf0e940d0, 2025-05-08)"
   xmlns:inkscape="http://www.inkscape.org/namespaces/inkscape"
   xmlns:sodipodi="http://sodipodi.sourceforge.net/DTD/sodipodi-0.dtd"
   xmlns="http://www.w3.org/2000/svg"
   xmlns:svg="http://www.w3.org/2000/svg">
  <defs
     id="defs1" />
  <sodipodi:namedview
     id="namedview1"
     pagecolor="#ffffff"
     bordercolor="#000000"
     borderopacity="0.25"
     inkscape:showpageshadow="2"
     inkscape:pageopacity="0.0"
     inkscape:pagecheckerboard="0"
     inkscape:deskcolor="#d1d1d1"
     showguides="true"
     inkscape:zoom="18.857143"
     inkscape:cx="14"
     inkscape:cy="7.6098485"
     inkscape:window-width="1014"
     inkscape:window-height="1040"
     inkscape:window-x="0"
     inkscape:window-y="0"
     inkscape:window-maximized="1"
     inkscape:current-layer="svg1">
    <sodipodi:guide
       position="10.319824,35.042392"
       orientation="0,-1"
       id="guide1"
       inkscape:locked="false" />
    <sodipodi:guide
       position="28.426625,19.71147"
       orientation="1,0"
       id="guide2"
       inkscape:locked="false" />
    <sodipodi:guide
       position="20.16424,10.821533"
       orientation="0,-1"
       id="guide3"
       inkscape:locked="false" />
    <sodipodi:guide
       position="15.405495,21.859464"
       orientation="1,0"
       id="guide4"
       inkscape:locked="false" />
  </sodipodi:namedview>
  <circle
     cx="12"
     cy="12"
     r="18"
     stroke="#2369ff"
     stroke-width="1.5"
     fill="#2369ff"
     id="circle1" />
  <polyline
     points="6.5 6.5 17.5 17.5 12 23 12 1 17.5 6.5 6.5 17.5"
     id="polyline1"
     style="display:none" />
  <path
     class="ColorScheme-Text"
     d="M 10.414837,0.04097906 A 1.2054857,1.2054857 0 0 0 9.7022949,1.1396059 V 8.9053204 L 5.9229372,6.5447494 a 1.2053572,1.2053572 0 0 0 -1.663714,0.38295 1.2053572,1.2053572 0 0 0 0.38295,1.663714 l 4.790089,2.9945886 -4.790089,2.99459 a 1.2053572,1.2053572 0 0 0 -0.38295,1.663714 1.2053572,1.2053572 0 0 0 1.663714,0.38295 l 3.7793577,-2.360572 v 7.765715 a 1.2054857,1.2054857 0 0 0 2.0057141,0.900884 l 7.232143,-6.428572 A 1.2054857,1.2054857 0 0 0 18.780064,14.580479 L 13.989975,11.58589 18.780064,8.5913004 a 1.2054857,1.2054857 0 0 0 0.160088,-1.924232 L 11.708009,0.23849696 a 1.2054857,1.2054857 0 0 0 -1.293252,-0.1977589 z m 1.698108,3.78241084 4.021071,3.5752505 -4.021071,2.51116 z m 0,9.4387501 4.021071,2.511161 -4.021071,3.57525 z"
     fill="currentColor"
     id="path1"
     style="color:#f2f2f2;display:inline;fill:#ffffff;stroke-width:0;stroke-dasharray:none" />
</svg>
