<?xml version="1.0" encoding="UTF-8" standalone="no"?>
<svg
   viewBox="-10 -10 45 45"
   width="28"
   height="28"
   stroke="#fff"
   stroke-width="2"
   fill="#2369ff"
   stroke-linecap="round"
   stroke-linejoin="round"
   class="css-i6dzq1"
   version="1.1"
   id="svg1"
   sodipodi:docname="flight-on.svg"
   inkscape:version="1.4.2 (ebf0e940d0, 2025-05-08)"
   xmlns:inkscape="http://www.inkscape.org/namespaces/inkscape"
   xmlns:sodipodi="http://sodipodi.sourceforge.net/DTD/sodipodi-0.dtd"
   xmlns="http://www.w3.org/2000/svg"
   xmlns:svg="http://www.w3.org/2000/svg">
  <defs
     id="defs1" />
  <sodipodi:namedview
     id="namedview1"
     pagecolor="#ffffff"
     bordercolor="#000000"
     borderopacity="0.25"
     inkscape:showpageshadow="2"
     inkscape:pageopacity="0.0"
     inkscape:pagecheckerboard="0"
     inkscape:deskcolor="#d1d1d1"
     showguides="true"
     inkscape:zoom="18.857143"
     inkscape:cx="14.026515"
     inkscape:cy="7.6628787"
     inkscape:window-width="1912"
     inkscape:window-height="1072"
     inkscape:window-x="0"
     inkscape:window-y="0"
     inkscape:window-maximized="1"
     inkscape:current-layer="svg1">
    <sodipodi:guide
       position="10.319824,35.042392"
       orientation="0,-1"
       id="guide1"
       inkscape:locked="false" />
    <sodipodi:guide
       position="28.426625,19.71147"
       orientation="1,0"
       id="guide2"
       inkscape:locked="false" />
    <sodipodi:guide
       position="20.16424,10.821533"
       orientation="0,-1"
       id="guide3"
       inkscape:locked="false" />
    <sodipodi:guide
       position="15.405495,21.859464"
       orientation="1,0"
       id="guide4"
       inkscape:locked="false" />
  </sodipodi:namedview>
  <circle
     cx="12.5"
     cy="12.5"
     r="18"
     stroke="#2369ff"
     stroke-width="1.5"
     fill="#2369ff"
     id="circle1" />
  <polyline
     points="6.5 6.5 17.5 17.5 12 23 12 1 17.5 6.5 6.5 17.5"
     id="polyline1"
     style="display:none" />
  <path
     class="ColorScheme-Text"
     d="M 10.414837,0.04097906 A 1.2054857,1.2054857 0 0 0 9.7022949,1.1396059 V 8.9053204 L 5.9229372,6.5447494 a 1.2053572,1.2053572 0 0 0 -1.663714,0.38295 1.2053572,1.2053572 0 0 0 0.38295,1.663714 l 4.790089,2.9945886 -4.790089,2.99459 a 1.2053572,1.2053572 0 0 0 -0.38295,1.663714 1.2053572,1.2053572 0 0 0 1.663714,0.38295 l 3.7793577,-2.360572 v 7.765715 a 1.2054857,1.2054857 0 0 0 2.0057141,0.900884 l 7.232143,-6.428572 A 1.2054857,1.2054857 0 0 0 18.780064,14.580479 L 13.989975,11.58589 18.780064,8.5913004 a 1.2054857,1.2054857 0 0 0 0.160088,-1.924232 L 11.708009,0.23849696 a 1.2054857,1.2054857 0 0 0 -1.293252,-0.1977589 z m 1.698108,3.78241084 4.021071,3.5752505 -4.021071,2.51116 z m 0,9.4387501 4.021071,2.511161 -4.021071,3.57525 z"
     fill="currentColor"
     id="path1"
     style="color:#f2f2f2;display:none;fill:#ffffff;stroke-width:0;stroke-dasharray:none" />
  <path
     class="ColorScheme-Text"
     d="m 25.301471,12.499892 c -0.01117,-1.315258 -1.805802,-2.351833 -4.001524,-2.351833 h -4.58104 c -0.624203,0 -0.858314,-0.111466 -1.237246,-0.5238684 L 7.924483,1.4540137 C 7.679269,1.1865061 7.389467,1.052745 7.066227,1.052745 H 5.628311 c -0.289816,0 -0.4569879,0.2675078 -0.323256,0.5684556 L 9.217434,10.136941 3.4993973,10.772261 1.4596426,7.138624 C 1.3035882,6.8599554 1.0695212,6.7373555 0.70169307,6.7373555 H 0.20010374 c -0.3009476,0 -0.5015751,0.2006276 -0.5015751,0.5015751 V 17.760941 c 0,0.300947 0.2006418,0.501575 0.5015751,0.501575 h 0.50158933 c 0.36782813,0 0.60189513,-0.122486 0.75794953,-0.401254 l 2.0397547,-3.6448 5.7180367,0.646526 -3.912379,8.51574 c -0.133747,0.300933 0.03344,0.568527 0.323256,0.568527 h 1.437916 c 0.32324,0 0.613028,-0.14495 0.858256,-0.401254 l 7.557178,-8.170177 c 0.378932,-0.412416 0.613043,-0.523898 1.237246,-0.523898 h 4.58104 c 2.195722,0 3.990363,-1.047779 4.001524,-2.351834 z"
     fill="currentColor"
     id="path1-2"
     style="color:#f2f2f2;fill:#ffffff;fill-opacity:1;stroke-width:0;stroke-dasharray:none" />
</svg>
