<?xml version="1.0" encoding="UTF-8" standalone="no"?>
<svg
   viewBox="-10 -10 45 45"
   width="28"
   height="28"
   stroke="#fff"
   stroke-width="2"
   fill="#2369ff"
   stroke-linecap="round"
   stroke-linejoin="round"
   class="css-i6dzq1"
   version="1.1"
   id="svg1"
   sodipodi:docname="flight-on.svg"
   inkscape:version="1.4.2 (ebf0e940d0, 2025-05-08)"
   xmlns:inkscape="http://www.inkscape.org/namespaces/inkscape"
   xmlns:sodipodi="http://sodipodi.sourceforge.net/DTD/sodipodi-0.dtd"
   xmlns="http://www.w3.org/2000/svg"
   xmlns:svg="http://www.w3.org/2000/svg">
  <defs
     id="defs1" />
  <sodipodi:namedview
     id="namedview1"
     pagecolor="#ffffff"
     bordercolor="#000000"
     borderopacity="0.25"
     inkscape:showpageshadow="2"
     inkscape:pageopacity="0.0"
     inkscape:pagecheckerboard="0"
     inkscape:deskcolor="#d1d1d1"
     showguides="true"
     inkscape:zoom="18.857143"
     inkscape:cx="13.973485"
     inkscape:cy="7.6363636"
     inkscape:window-width="1912"
     inkscape:window-height="1045"
     inkscape:window-x="0"
     inkscape:window-y="0"
     inkscape:window-maximized="1"
     inkscape:current-layer="svg1">
    <sodipodi:guide
       position="10.319824,35.042392"
       orientation="0,-1"
       id="guide1"
       inkscape:locked="false" />
    <sodipodi:guide
       position="28.426625,19.71147"
       orientation="1,0"
       id="guide2"
       inkscape:locked="false" />
    <sodipodi:guide
       position="20.16424,10.821533"
       orientation="0,-1"
       id="guide3"
       inkscape:locked="false" />
    <sodipodi:guide
       position="15.405495,21.859464"
       orientation="1,0"
       id="guide4"
       inkscape:locked="false" />
  </sodipodi:namedview>
  <circle
     cx="12.5"
     cy="12.5"
     r="18"
     stroke="#2369ff"
     stroke-width="1.5"
     fill="#2369ff"
     id="circle1" />
  <polyline
     points="6.5 6.5 17.5 17.5 12 23 12 1 17.5 6.5 6.5 17.5"
     id="polyline1"
     style="display:none" />
  <path
     class="ColorScheme-Text"
     d="M 10.414837,0.04097906 A 1.2054857,1.2054857 0 0 0 9.7022949,1.1396059 V 8.9053204 L 5.9229372,6.5447494 a 1.2053572,1.2053572 0 0 0 -1.663714,0.38295 1.2053572,1.2053572 0 0 0 0.38295,1.663714 l 4.790089,2.9945886 -4.790089,2.99459 a 1.2053572,1.2053572 0 0 0 -0.38295,1.663714 1.2053572,1.2053572 0 0 0 1.663714,0.38295 l 3.7793577,-2.360572 v 7.765715 a 1.2054857,1.2054857 0 0 0 2.0057141,0.900884 l 7.232143,-6.428572 A 1.2054857,1.2054857 0 0 0 18.780064,14.580479 L 13.989975,11.58589 18.780064,8.5913004 a 1.2054857,1.2054857 0 0 0 0.160088,-1.924232 L 11.708009,0.23849696 a 1.2054857,1.2054857 0 0 0 -1.293252,-0.1977589 z m 1.698108,3.78241084 4.021071,3.5752505 -4.021071,2.51116 z m 0,9.4387501 4.021071,2.511161 -4.021071,3.57525 z"
     fill="currentColor"
     id="path1"
     style="color:#f2f2f2;display:none;fill:#ffffff;stroke-width:0;stroke-dasharray:none" />
  <path
     class="ColorScheme-Text"
     d="m 23.852607,11.903321 c -0.0089,-1.052562 -1.445132,-1.882104 -3.202306,-1.882104 h -3.666076 c -0.499532,0 -0.686884,-0.08921 -0.990133,-0.4192369 L 9.946299,3.0636212 C 9.7500612,2.8495424 9.5181409,2.7424969 9.2594612,2.7424969 H 8.108738 c -0.2319316,0 -0.3657145,0.2140787 -0.2586927,0.4549193 L 10.981011,10.012319 6.4050288,10.520748 4.7726712,7.6128525 C 4.6477854,7.3898417 4.4604682,7.2917291 4.1661059,7.2917291 H 3.7646982 c -0.2408398,0 -0.4013963,0.1605561 -0.4013963,0.4013966 v 8.4204633 c 0,0.24084 0.160568,0.401397 0.4013963,0.401397 h 0.4014077 c 0.2943623,0 0.4816795,-0.09802 0.6065653,-0.321112 l 1.6323576,-2.916829 4.5759822,0.517397 -3.1309658,6.814902 c -0.1070339,0.240829 0.026761,0.454977 0.2586927,0.454977 h 1.1507233 c 0.2586797,0 0.4905888,-0.116 0.6868378,-0.321112 l 6.047793,-6.538361 c 0.303249,-0.330045 0.490601,-0.419261 0.990133,-0.419261 h 3.666076 c 1.757174,0 3.193374,-0.838508 3.202306,-1.882105 z"
     fill="currentColor"
     id="path1-2"
     style="color:#f2f2f2;fill:#ffffff;fill-opacity:1;stroke-width:0;stroke-dasharray:none" />
</svg>
