<?xml version="1.0" encoding="UTF-8" standalone="no"?>
<svg
   viewBox="-10 -10 45 45"
   width="28"
   height="28"
   stroke="#fff"
   stroke-width="2"
   fill="#2369ff"
   stroke-linecap="round"
   stroke-linejoin="round"
   class="css-i6dzq1"
   version="1.1"
   id="svg1"
   sodipodi:docname="redshift-status-off.svg"
   inkscape:version="1.4.2 (ebf0e940d0, 2025-05-08)"
   xmlns:inkscape="http://www.inkscape.org/namespaces/inkscape"
   xmlns:sodipodi="http://sodipodi.sourceforge.net/DTD/sodipodi-0.dtd"
   xmlns="http://www.w3.org/2000/svg"
   xmlns:svg="http://www.w3.org/2000/svg">
  <defs
     id="defs1" />
  <sodipodi:namedview
     id="namedview1"
     pagecolor="#ffffff"
     bordercolor="#000000"
     borderopacity="0.25"
     inkscape:showpageshadow="2"
     inkscape:pageopacity="0.0"
     inkscape:pagecheckerboard="0"
     inkscape:deskcolor="#d1d1d1"
     showguides="true"
     inkscape:zoom="18.857143"
     inkscape:cx="14.05303"
     inkscape:cy="7.5833333"
     inkscape:window-width="1912"
     inkscape:window-height="1045"
     inkscape:window-x="0"
     inkscape:window-y="0"
     inkscape:window-maximized="1"
     inkscape:current-layer="svg1">
    <sodipodi:guide
       position="10.319824,35.042392"
       orientation="0,-1"
       id="guide1"
       inkscape:locked="false" />
    <sodipodi:guide
       position="28.426625,19.71147"
       orientation="1,0"
       id="guide2"
       inkscape:locked="false" />
    <sodipodi:guide
       position="20.16424,10.821533"
       orientation="0,-1"
       id="guide3"
       inkscape:locked="false" />
    <sodipodi:guide
       position="15.405495,21.859464"
       orientation="1,0"
       id="guide4"
       inkscape:locked="false" />
  </sodipodi:namedview>
  <circle
     cx="12"
     cy="12"
     r="18"
     stroke="#2369ff"
     stroke-width="1.5"
     fill="#2369ff"
     id="circle1" />
  <polyline
     points="6.5 6.5 17.5 17.5 12 23 12 1 17.5 6.5 6.5 17.5"
     id="polyline1"
     style="display:none" />
  <path
     class="ColorScheme-Text"
     d="M 9.477337,-0.04424821 A 1.2054857,1.2054857 0 0 0 8.7647949,1.0543786 V 8.8200931 L 4.9854372,6.4595221 a 1.2053572,1.2053572 0 0 0 -1.663714,0.38295 1.2053572,1.2053572 0 0 0 0.38295,1.663714 l 4.790089,2.9945889 -4.790089,2.99459 a 1.2053572,1.2053572 0 0 0 -0.38295,1.663714 1.2053572,1.2053572 0 0 0 1.663714,0.38295 l 3.7793577,-2.360572 v 7.765715 a 1.2054857,1.2054857 0 0 0 2.0057141,0.900884 l 7.232143,-6.428572 a 1.2054857,1.2054857 0 0 0 -0.160088,-1.924232 l -4.790089,-2.994589 4.790089,-2.9945899 a 1.2054857,1.2054857 0 0 0 0.160088,-1.924232 L 10.770509,0.15326969 a 1.2054857,1.2054857 0 0 0 -1.293252,-0.1977589 z m 1.698108,3.78241081 4.021071,3.5752505 -4.021071,2.51116 z m 0,9.4387504 4.021071,2.511161 -4.021071,3.57525 z"
     fill="currentColor"
     id="path1"
     style="color:#f2f2f2;display:none;fill:#ffffff;stroke-width:0;stroke-dasharray:none" />
  <circle
     cx="11.964287"
     cy="11.976461"
     r="18"
     stroke="#aaaaaa"
     stroke-width="1.5"
     fill="#aaaaaa"
     id="circle1-2" />
  <path
     class="ColorScheme-Text"
     d="m 11.812819,1.5209672 c -4.093438,0 -7.40941,3.3298089 -7.40941,7.4376591 0,2.4214697 1.1401375,4.5540907 2.9417973,5.9089617 0.82157,0.61978 1.5116889,1.426592 1.5116889,2.536489 l 0.073193,1.413201 h 5.7654048 l 0.08727,-1.413201 c 0.05765,-1.10984 0.676079,-1.916709 1.497708,-2.536489 1.801688,-1.354871 2.941797,-3.487492 2.941797,-5.9089617 -5e-6,-4.1078502 -3.315972,-7.4376591 -7.409409,-7.4376591 z m 0,1.441351 c 3.311792,0 5.968058,2.6639048 5.968058,5.9963081 0,1.9696057 -0.913528,3.6642007 -2.367563,4.7576097 -1.020376,0.769755 -1.980272,2.000019 -2.069059,3.600495 v 0.0086 l -0.0029,0.0057 -0.0028,0.045 h -3.037426 l -0.0028,-0.04504 v 0.07319 C 10.298324,15.69514 9.2036077,14.463936 8.2122609,13.716165 6.7582261,12.622755 5.844698,10.92816 5.844698,8.9585542 c 0,-3.3324032 2.6562656,-5.996308 5.968058,-5.996308 z M 8.9301158,20.258529 v 1.44135 h 5.7654052 v -1.44135 z m 1.4413512,2.882701 v 1.441351 H 13.25417 V 23.14123 Z"
     fill="currentColor"
     id="path1-5"
     style="color:#f2f2f2;fill:#ffffff;fill-opacity:1;stroke:#ffffff;stroke-width:0.803571;stroke-dasharray:none;stroke-opacity:1" />
</svg>
