<?xml version="1.0" encoding="UTF-8" standalone="no"?>
<svg
   viewBox="-10 -10 45 45"
   width="28"
   height="28"
   stroke="#fff"
   stroke-width="2"
   fill="#aaa"
   stroke-linecap="round"
   stroke-linejoin="round"
   class="css-i6dzq1"
   version="1.1"
   id="svg5"
   sodipodi:docname="wifi-off.svg"
   inkscape:version="1.4.2 (ebf0e940d0, 2025-05-08)"
   xmlns:inkscape="http://www.inkscape.org/namespaces/inkscape"
   xmlns:sodipodi="http://sodipodi.sourceforge.net/DTD/sodipodi-0.dtd"
   xmlns="http://www.w3.org/2000/svg"
   xmlns:svg="http://www.w3.org/2000/svg">
  <defs
     id="defs5" />
  <sodipodi:namedview
     id="namedview5"
     pagecolor="#ffffff"
     bordercolor="#000000"
     borderopacity="0.25"
     inkscape:showpageshadow="2"
     inkscape:pageopacity="0.0"
     inkscape:pagecheckerboard="0"
     inkscape:deskcolor="#d1d1d1"
     showguides="true"
     inkscape:zoom="17.25"
     inkscape:cx="14.405797"
     inkscape:cy="22.405797"
     inkscape:window-width="954"
     inkscape:window-height="1040"
     inkscape:window-x="0"
     inkscape:window-y="0"
     inkscape:window-maximized="1"
     inkscape:current-layer="svg5">
    <sodipodi:guide
       position="33.552383,17.960986"
       orientation="1,0"
       id="guide5"
       inkscape:locked="false" />
    <sodipodi:guide
       position="21.122865,30.941503"
       orientation="0,-1"
       id="guide6"
       inkscape:locked="false" />
    <sodipodi:guide
       position="10.169109,21.734278"
       orientation="1,0"
       id="guide7"
       inkscape:locked="false" />
    <sodipodi:guide
       position="21.891498,13.714213"
       orientation="0,-1"
       id="guide8"
       inkscape:locked="false" />
  </sodipodi:namedview>
  <circle
     cx="12"
     cy="12"
     r="18"
     stroke="#aaa"
     stroke-width="1.5"
     fill="#aaa"
     id="circle1" />
  <g
     class="ColorScheme-Text"
     fill="currentColor"
     id="g3"
     style="color:#f2f2f2;fill:#ffffff;fill-opacity:1;fill-rule:nonzero;stroke:none;stroke-opacity:1"
     transform="matrix(1.6071429,0,0,1.6071429,-5.9431281,-5.3651646)">
    <path
       d="m 4.6174,10.531 c 0.13252,0.14511 0.34077,0.13879 0.47959,-0.01264 1.5586,-1.6471 3.6096,-2.5178 5.9001,-2.5178 2.3096,0 4.3668,0.87081 5.9192,2.5305 0.13253,0.13247 0.33443,0.12615 0.46698,-0.01264 l 0.8834,-0.88979 c 0.12622,-0.12621 0.12622,-0.29027 0.02528,-0.41017 -1.5208,-1.8741 -4.3542,-3.2183 -7.2948,-3.2183 -2.9344,0 -5.774,1.3378 -7.2885,3.2183 -0.10096,0.1199 -0.10096,0.28396 0.018932,0.41019 z"
       id="path1-2"
       style="fill:#ffffff;fill-opacity:1;fill-rule:nonzero;stroke:none;stroke-opacity:1" />
    <path
       d="m 7.2551,13.156 c 0.15144,0.14517 0.35338,0.13254 0.49852,-0.0252 0.76985,-0.83932 2.0004,-1.4325 3.2498,-1.4262 1.2558,-0.0063 2.4863,0.59951 3.2751,1.4451 0.13247,0.15149 0.3218,0.14517 0.4669,0 l 0.99075,-0.97179 c 0.11991,-0.11358 0.13253,-0.27132 0.02526,-0.39755 -0.98442,-1.1926 -2.7829,-2.0508 -4.7581,-2.0508 -1.9814,0 -3.78,0.8582 -4.7643,2.0508 -0.10728,0.12622 -0.094656,0.27764 0.025238,0.39755 z"
       id="path2-9"
       style="fill:#ffffff;fill-opacity:1;fill-rule:nonzero;stroke:none;stroke-opacity:1" />
    <path
       d="m 11.003,16.652 c 0.15149,0 0.28396,-0.06944 0.54272,-0.31555 l 1.5461,-1.4893 c 0.11358,-0.10728 0.13885,-0.28396 0.03784,-0.41019 -0.4417,-0.5616 -1.2431,-1.0159 -2.1266,-1.0159 -0.90868,0 -1.7227,0.47322 -2.1581,1.0664 -0.075745,0.1136 -0.037909,0.25244 0.069355,0.35972 l 1.5461,1.4893 c 0.25237,0.23981 0.39122,0.31555 0.54265,0.31555 z"
       id="path3-1"
       style="display:inline;fill:#ffffff;fill-opacity:1;fill-rule:nonzero;stroke:none;stroke-opacity:1" />
  </g>
</svg>
